<svg xmlns="http://www.w3.org/2000/svg" viewBox="0 0 150 230">
  <rect fill="#EAEAEA" x="0" y="0" width="150" height="230" />
  <g>
    <path fill="#402300" d="M91.15 44.5l1.05 1.65q1.1 3-1.85 7.65 1.05-4.1.4-6.35l-.55-1.1q-.3-.3-.35-.15l-.15.35q-1.95 4.25-.45 7.35.75 1.6 1.85 2.3-1.1.35-1.95 0l-.65-.35q0 .4.85 1.05-2.35.3-3.2-2l-.4-1.65-.05-.75q-.6 1.25-.15 2.9.4 1.75 1.5 1.75l-4.95-.2-1.1-.7-.9-.6-4.8-.3-5.75.55q-.4.1-.3 1l.15.85-1.4.1-.6-.3-.45-.1.25.5q-.5-.05-.95-.85l-.4-.8q-.35 1 .45 1.9-1.5 0-2.3-2.35l-.35-1.6-.1-.75-.55.45q-.25 2.45.75 4.05l1.1 1.1q-2-.4-2.95-2l-.5-1.05-.1-.45q-.85.65-1.7.75h-.65q1.45-.85 2.25-2.4-.1-.45.3-1.7l.4-1.1q-1.55.9-2.55.35-.55-.3-.75-.8 1.5.4 2.15-1.2l.25-1.15.05-.5q-.9.35-1.7-.25l-.65-.7q.8.6 1.35-.55t.1-1.95q-.35-.6-.15-3l.3-2.25-.05-.1q8.55-4.85 15.15-6.1 5.65-1.1 9.5.55 3.3 1.4 4.75 4.55 1.35 2.75.9 5.8l.6.65"/>
    <path fill="#7B440F" d="M88.35 47.5q-1.7 4.05 1.4 8.75-.85 0-1.25-.55l-.25-.6q-1.2-2.3-.7-5.5.15-1 .45-1.95l.25-.75-1.6 1.25Q85.4 52.3 85.55 55q.1 1.35.45 1.9-1.95-1.05-1.25-5.05l.65-2.65.45-1.15-2.5 4.75q-.4 2.4.4 3.65l.55.55.1.2q-1.9.55-2.1-.5-.05-.35.05-.8l.4-1.05h-16q-.5.45.8 1.9l1.4 1.3-1.45-.6q-1.05-.65-1.25-2.1v-.95l.05-.4-1.2-1.6q-1 1.85-.3 3.9.4 1 .95 1.65-2.1-1.05-2-3.5l.3-1.6.25-.65-.4-.35q-.9 2.75-2.45 3.75l-1.35.45q1.2-.5 2.5-3.2l.75-1.8.3-.8.15-4.5-.85-.7-1.05-1.75.6 2.35.3 2q0 2-1.75 3.8 1.1-1.7 1.25-2.95l-.2-1.5q-.45-1.15-.5-3.65l.2-3.5q1.55 1.1 1.95 2.25l.15 1 26.75 1.3q-1.45 1.1-2.3 3.1"/>
    <path fill="#666" d="M104.716 206.29q4.168 2.91 4.277 6.888-.11 3.75-4.277 6.733-4.224 3.14-11.3 4.75-7.183 1.84-16.068 1.84-8.776 0-15.906-1.83-7.13-1.6-11.407-4.74-4.17-2.98-4.278-6.73.11-3.67 4.278-6.88 4.277-2.9 11.407-4.74 7.13-1.91 15.906-1.91 8.83 0 16.07 1.92 7.074 1.84 11.298 4.75" opacity=".353"/>
    <path fill="#9C6A4E" d="M37.1 70.9l.35 1.5.3 2.05-1-1-1.05-.95-.2-.75q-.05-.4.3-.65l.1.05-.05-.05.4.25.45.3.05-.4q.05-.4.25-.45l.1.1"/>
    <path d="M35.45 71.7l.25.8-.35-.25-.75-.75-1.05-1.2-.75-.85.25-.3.85.6.9.8.95.55q-.3.2-.3.6M37 69.3l-.05-.9v-.5l.35.35.4 1 .35 1.65.2 1.3-.25 1.3-.05 1.15-.2-.25-.3-2-.35-1.55-.1-1.55m63.3 63.8l.1.25.9 1.5.55 1.65.2.8-.4.05q-.3-.85-1-1.7l-.8-.9-.1-.1v-.85q.1-.45.55-.7M38.8 79.15l-1.85-.35-.9-.35.1-.35.75.15.8.15.3-.1.45-.15.45 1.05-.1-.05m-3.4-10.4l.6.75 1 1.3q-.25.05-.3.45v.4l-.45-.3-.4-.25-.55-1.4-.25-.8.35-.15"/>
    <path d="M89.1 60.85l-.4.1q-.4-1.1-1.6-1.8-1.2-.7-2.4-1.05l-1.5-.25-.75.3-.65.5.2 1 .2 1 .75.3.65.25 3.15 1.4 3.35 1.55q1.6.75 2.5 1.4.95.8 1.3 2.2.35 1.45.3 2.9l-.1 1.75-.1.95-.05.35Q93 80.2 92.5 85.15l-.35 4.55-.05 3.4v1.8q.85 1.9 1.2 4.65l.3 5.65-.2 6-.55.15q-.2-.05-.5-1l-.6-2.15-.45-2.1-.2-.95-.75.2-1.45.35-.85.1-.8.15-.6.2-.25.45q-.25.4-.25 1.3l.3 2.1.6 2.6.35 1.3.35 1.05.7 2.2q.35 1.2.3 2l-.1 1.9.05 1.9.05.9-.4 3.3.75 4.2-.5 2.85.45-.4q.45-.35.75-.2l.2 1q-.05.7.25.95.25.05.5-.25l.5-.65.2-.4.1-1.25.2-2.3.1-1.4.15-.65.2-.5.35.15.6.3q-.35.3-.6 1.4-.3 1.1-.3 2.65l.05.95v.55l-.2 3.4-.5 4.4-.45 3.95-.25 1.85q-.5 1.55-.5 3 .05 1.9.45 3.15l.5 1.3-.3.25q-.6-.65-1.05-1.9l-.75-2.65q-.3-1.35-.3-2.25l.05-.4.1-1.9-.15-2.8-.35-2.05-.5-1.75-.4-1.75-.65 1.95-.4 1.1q-.3.6-.3 1.35l.2 1.3.15.6.1.3-.3-.05q-.3.05-.6-.45-.35-.75-.35-2.2l.15-2.55.45-2.35.5-1.5.3-1.2.1-1.75-.05-1.75-.1-1.45-.05-.2-.85 2.15-1.45 3.4-1.5 3.3-.85 1.8-.7 1.8-1.1 3.3-1 3.3-.5 2-.15 1.35-.1 1.05-.1.9v.15l.35.05h.15l.05.15v.4l-.1.85-.05.15.15.5.2.25.95.65.25.7-.1.7-.05.35-.05.1.15.55.2.2.05.05q2.75 5 3.95 9.9 1.25 4.85 1.2 8.75 0 2.4-.4 4.1-.25 1.3-.25 3.2 0 2.3.3 5.05l.85 5.45q.5 2.75 1.1 4.95.65 2.25 1.3 3.5 1 1.6 3 2.2l4.1.6 3.15-.15.65-.15.15.1.05.1-.1.2-.05.05h-.05l-.6.05-1.45.6-3.05.65h-2.5l.25.1 1.05.4 1.4.6 1.95.4 2.2-.15 1.7-.55q1.05-.6 1.55-.55l.55.2q.85.8 2.2 1.35l2.7.95 2.35.5 1.05.2v.35h-.1l-1.6-.05-2-.2h-.05l-.8-.3-1.8-.4-.75-.15-1.85-.2q-1 .05-2.6.85-1.9.85-4 .5l-3.7-.9-.9-.3-2.4-.1-1.6.35.85 1 1.15 1 .75.7 2.95.2q1.1-.1 1.85.6l1.35 1.65.8 1.05q.85.9 1.75 1.15l.95.25.05.35-2.25-.05-2.1-.95-1.6-1.1-.4-.3q-.7-.5-1.5-.65-.75-.1-1.3.45l-1.05 1.05-.55.45-.05.05h-.05l-1.15-.4-1.8-1.1-1.6-1.05.05.3-.4 1.3-.6.55q-.35.6-.35 1.2l.05.6q.4.95 1.1 1.5l.85.55.05.05q1 1.5.95 2.7l-.35 1.6-.3.6-.35-.15.05-.15.1-1.25q-.05-.7-.6-1.35-.55-.6-2.05-1.1-1.7-.6-2.4-1.55-.7-.95-.8-1.75l-.1-.85.1-.65-.05-1.35q-.15-.75-.65-1.25-.6-.45-2.05-.45l-2.9.2-1.9.4-1.95.55-2.25-.05-1.9-.1-2.45.25-1.4.1-1.25.5-.4.45q-.35.9-1.2 1.2l-2.25-.1-1.35-.5-1.15-.05-1.35.05-.8.1-1.25.3-.8.05-1.4.4-1.25.75-.25-.3q1.75-1.8 3.45-2.2l3.15-.25h1.15q1-.1 1.7-.6l1.05-1.1.4-.6 1.1-1.1 1.2-.9-1.65-.75-1.95-.7-.9-.35q-.55 0-1.55.6l-1.55 1q-.8.95-1.6 1.15l-1.35.05-.6-.15-1.2-.3-1.35.05-.65.1h-.15l-.05-.1-.05-.15.05-.15.6-.35.85-.15-.8-.45-1.25.05q-.8.25-1.4.6l-.4.2.1-.4q.1-.3.85-.75l1.5-.8.95-.4q.35-.05.5.4l.65.8q.45.45 1.45.6l2.05-.25 1.4-.85.65-.4 1.05-.9 1-1.1.45-.55.1-.15.15.15 1.7.95q1.35.6 3.7.6l2.4-.55q.8-.55 1.45-1.3l1.35-1.3 1.9-2.4 1.75-3.1 1.05-2.25.35-.65.95-2 1-2.85.15-1.45-.25-2.9-.6-3.1-.6-2.6-.35-1.35-.4-1.2-.8-1.85-1.45-3.15q-.7-1.65-1.05-3l-.55-3.25-.5-4.2-.3-3.7-.15-1.85v-.7l-.1-.55v-.1l-.2-.8.1-.6.05-.15-.25-1-.45-1.15-.2-.5-.2-1.3v-.35l-.4-1.9-.95-3.3-1.1-3.65-.95-2.9q-.65-2.35-1.15-4.95l-.85-5.15-.6-4.6q-.25-2.3-.25-5.15 0-2.7.3-5.45.25-2.7.9-4.95l1.6-4.45 1.75-4.2.95-2.2-.05-.25-.05-.2v-.1q.4-.8.35-1.8l-.05-1.1v-.05l.1-.25.2-.35-.65-1.2-.5-1.4q-1.1 2.05-1.85 4.45l-1.35 4.5-.75 3.5-.25 1.4v.35l-.2 3.35-.5 4.15-.5 3.55-.25 1.7-.4 2.85q-.15 1.6-.15 3.35l.15 4.4.15 2-.35.1q-.45-.8-.7-3.05-.25-2.25-.35-5.15l-.05-5.8v-.25l-.2-.65-.4-.05-.15.05-.05-.1q-.4-.65-.5-2.3-.15-1.7-.15-3.7v-1.75l.05-.55-.35-1.4-.3-.7-.05-.1.05-.05.15-.6v-.05l-.25.05q-.2.15-.35.65l-.2 1.05-.25 1.2q-.15.35-.15 1.3l-.05 2.05v2.25l.15.85-.05.3-.1.35-.25-.3-.1-1.15-.3-.75q-.15-.4-.15-.95l.05-.7.05-.55-.05-.25v-2.95l.05-3-.05-1.7v-.35l.1-1.8.2-2.05.15-1.65.1-1.35-.05-.35 1.2 1.2 2.3 3.4.45.25.9.15q.5 0 .75-.6.3-.95.05-1.8l-.25-.85-.95-1.7-.15-.95-.25-2.15-.25-2.45v-1.7l-.05-1.6.25.3 1.4-4.65.4-1.6-.1-.5-.1-.45v-.1l.2-.85.45-1 .05-.7-.2-2.15-.2-1.1-.25-2.95q.05-2.25.4-3.75.35-1.55.75-2 .25-.35 1.5-.95l3.05-1.4 1.35-.65.75-.35.7-.6 1.15-.8.8-.6.1-.55q-.05-.7-.45-1.15l-.45-.45q-1.45-.65-2.65-.6l-2.2.4-1.6.7-.5.25q-.55.3-.7 1.1l-.2 1.25-.05.7-.35-.6q-.5-1-.3-1.65.15-.6.55-1.1l.15-.25q.3-.4 1.35-1l2.5-1.3 2.85-1.3q1.25-.55 2.15-.25l1.25.7h.05q.6 1 .65 1.55.1.6.45.95l.45.4.95 2.25-.95 2.85-.45.3-.95.6-.55.45-.55 1.4-.85 2.5-.45 1.5.2 1.45.3 2.4.2 1.25 1.1 3.15.3.45.75.5q.4.1.75-.65.45-.85 1.85-2l2.65-2 1.5-1 .8-1.15 1.3-1.95.65-1.05-.65-1.15-1.25-2.25-.7-1.35-.35-.75-.75-1.25-.4-.85.1-1.4.25-2.35.15-1.2 2.05-.25h.25l.6-.5v-.95l.3-.2h.1q3 .15 4.75 1t2.55 1.9L88.9 60l.2.85M83.65 91.1L83 92.4l-.7 1.7-.55 1.35.5-.25.1-.05.1.1.25.75v3.15h-.1l.05.05h-.05l1.05 1.95 1.4 2.85.15-5.1.4-5.25.1-1 .05-1.55.15-2.9-1.25 1.6-1 1.3m19.95 39.45q1.55 1.75 1.95 3l.25 1.4-.35.05q-.3-.75-.95-1.3l-.75-.65-.65-.35v-1q.1-.6.5-1.15"/>
    <path fill="#9C6A4E" d="M92.35 110.35q.3.9.5 1l.55-.15-.4 4.5-.1 1.3-.05 1 .2 1.95.2.8 1.95 1.4 2.6 1.45 1.6.7 1 .45.6.45.1.1.5 1.3 1 2.05 1 1.9q-.4.55-.45 1.15l-.05 1-1.6-1.45-1.3-1.7-.6-.85-1.45-.7-2.35-.8 1.15 1.2 1.3.95q.65.4.7.55l.35.75.55 1.35.45 1.1q-.45.25-.55.65v.9l-.75-.75-.85-1.1-.75-1-.65-.7-1.15-.9-1.4-1.05-.95-.65-.05.1-.65-.35-.3-.1-.25.5-.15.65-.05 1.35-.2 2.35-.1 1.25-.25.4-.5.65q-.25.3-.5.2-.25-.25-.2-.9l-.2-1q-.35-.15-.75.2l-.5.4.55-2.85-.8-4.2.4-3.3-.05-.9V121l.05-1.85q.05-.75-.3-2l-.65-2.2-.4-1.05-.3-1.3-.6-2.6q-.35-1.45-.35-2.1.05-.9.25-1.35l.25-.4.65-.2.75-.15.9-.1 1.4-.35.75-.2.2.95.45 2.1.6 2.15"/>
    <path d="M44.05 68.85l-.35.5-.05-.15-.8-.85-1-1.15-.55-.65.25-.25.85.55 1.35.9 1.05.7q-.45.1-.75.4"/>
    <path fill="#9C6A4E" d="M80 53.05l.05.05v.5l.05 1.05v.85h.05v.9l-.6.5h-.25l-2.05.25-.15 1.2-.25 2.35-.1 1.4.4.85.75 1.2.35.8.7 1.35 1.25 2.25.65 1.15-.65 1.05-1.35 1.95-.8 1.15-1.45 1-2.7 2q-1.35 1.15-1.8 2-.35.75-.75.65l-.75-.5-.3-.45-1.1-3.15-.2-1.25-.3-2.4-.2-1.45.45-1.5.85-2.5.55-1.4.55-.45.9-.6.5-.3.95-2.85-.95-2.25-.45-.4q-.4-.35-.45-.95-.05-.55-.7-1.6v-2.2l.05-.05q2.2-2.55 4.7-2.5 1.3.05 2.35.6l1.55 1.05.65.65M49.85 72.2q.6.25 1.05 1l.8 1.65.5 1.5.15.45.1.75-.1 1.1q.55 2.1 1.4 3.85l1.75 3.05 1.4 1.95.05 1.65v1.65l.25 2.45.25 2.15.15.95.95 1.7.25.9q.25.8-.05 1.8l-.75.6-.9-.2-.45-.25-2.3-3.4-.8-.7-.4-.5v-.15l-.05-.2-1.05-3.45-1.25-4.25-1.1-4-.65-2.7-.5-2-.35-.65-2.15.25-1.45.1-1.15.55-1.65.4-1.6-.45-1.3-.55-.4-1.05.1-.05 1.15.2 1 .2 1-.15-1.2-.55-1.2-.7h-.05l-.05-.05-.8-1.55-.5-.8-.1-.15-.1-.15-.05-.75q-.05-.45.55-1.45l.05.1.4.5.45.55h1.35l1.55.1.85.1h.55l.25-.05v-.05h.05L45.7 73H47l-.6-.7-.5-.35-.7-.3-.4-.35-.65-.95-.45-.95.35-.5.7-.4.2.1.7.45.5.5.85.8 1.55 1.3.7.3.6.25"/>
    <path fill="#DCBC9C" d="M91 101.1l1.3 4.05q.6 2.45.65 5.3v.7H93l-.35 4.5-.15 1.3V118l.2 2.15.2.8h.05v.05q.55.6 1.95 1.45l2.75 1.5 1.7.7.75.35.65.45.15.45-1-.4-1.15-.45-1.3-.55-.6-.25.6.4 1.2.7q.65.35 1.15.5 1.25.35 1.5 1.05h.05l1.2 2.45.75 1.4.05.05q1.25 1.35 1.65 2.4l-.9-1.25-.75-.95-.75-1.05-1.05-1.65-.7-1.05v-.1l-.25-.3-1-.35-2.2-.9-1.1-.65 1.05.85q.95.7 2.15 1.1.75.2.85.3l.1.15.6.95 1.15 1.75.85 1.2.05.05v.05q-.15.1.1.95l-1.5-1.45-1.25-1.6-.55-.8-1.25-.65-1.9-.75-1.2-.4-.35-.1.1.35q.25.8 1.15 1.55l1.6 1.2.6.45.5 1.2.8 1.95-.15.15v.8l-1.35-1.65L97 130.8l-1.75-1.35-1.7-1.2.05-.05q-1.1-.7-1.7-.5-.6.2-.65.35-.35.35-.35 1.2l.2 1.8.1 1.05-.05.15-.45 1.15-.65 1.15q0-.8-.35-.95h-.25l.25-.85.3-1.1.05-.25-.15-1.5-.3-1.75-.3-1q-.2-.35-.15-1.2l.05-1.35.2-1.7.05-.7v-.2l-.1-1.4-.2-1.65-.2-1.2-.35-1.25-.45-1.9-.35-1.8-.4-2.05-.55-2.65-.35-1.75 1.3-3.1 1.25-2.75.95-1.6 1 2.2"/>
    <path fill="#333" d="M88.45 117.5l.1.4.2 1.25.25 1.8.05 1.25-.1.65-.15 1.75-.1 1.35q-.05.95.25 1.45l.25 1.05.3 1.8.1 1.35-.3 1.05q-.3.8-.25 1.3v4.15l.2 1.55.35-.05.2-2.95.25-1.6.55-.75.6-1.1.3-.9-.1-1.3-.15-1.6q0-.8.25-1.1l.4-.2 1.05.15q-.55.5-.8 1.75-.3 1.25-.3 2.7l.05.95v.5l-.2 3.4-.5 4.5-.5 3.9-.2 1.7q-.55 1.65-.5 3.1 0 1.45.3 2.55l-.7-2.5q-.3-1.3-.3-2.15l.05-.35.1-2-.1-2.8-.4-2.15-.45-1.6-.4-1.75-.2-.8h-.35l-.45 1.35-.55 1.55-.25.8q-.35.65-.35 1.45l.15 1.35-.2-1.8.15-2.45.4-2.3.5-1.45.4-1.35.1-1.8-.1-2.1-.1-1.15q0-.45-.3-.65l.6-2.5.65-4.1.25-4.55"/>
    <path fill="#DCBC9C" d="M85.05 70.8l-.8.85-1.6 1.5L81 74.4l-3.25 1.85-3.5 2-2.25 1.2-.4.1q-.2-.8-.05-1.9l.3-1.95.25-.95-.3.85-.55 2q-.2 1.1-.05 1.95l-.5-.3q-3.35-3.55-5.35-4.95l-2.3-1.45q.5-2.2 2.1-4.15 1.6-1.95 3.45-3.65l2.45-2.55q1.5-1.8 1.25-3l-.35-.75-.3-.2v-.05h-.05l-.2-.05-.3-.3q-.15-.25 0-.65.2-.65 0-1.15v-2.9q2.1-2.3 4.35-2.3 1.15.05 2.1.5.9.45 1.45.95l.7.65v.85l.05 1.35h-.1v1.5l-.8.3q-.65.25-.95 1.6l-.1 1.2q0 1.6.75 3.05l.05.35.1-.05.85 1.05 2.6 2.35 2.1 2.3q.8 1.05.8 1.7M72.2 65.6l-.15-.1-.9-.15h-.65l.6.2.75.3.1.1 1.05.55 1.45-.15.65-.2 1.25-.45.7-.2-1.7.2-1.05.3-1.2.1-.9-.5"/>
    <path fill="#333" d="M70.25 55.8l.3.35.25.75-.1.45-.1.5.15.45.4.45.3.1.2.2.25.5v.3l-.2.95-.95 1.45-2.45 2.5q-1.9 1.8-3.6 3.85-1.65 2.05-2.1 4.5-1.05 1.45-1.75 2.65L59.8 77.8l-.2-2.1-.2-1.05q-.45-3.2-.05-5.55.4-2.3.85-2.85l.95-.6 1.7-.8 1.8-.85 1.6-.75.6-.3 1.15-.9 1.5-1.1.05-.05q.35-.9-.05-1.65l-.9-1.1q-1.7-.75-3.15-.6-1.45.1-2.5.6.85-.5 1.95-.85l2.15-.2h.1l.65.05q.6.05 1.35.8.7.7 1.15 2.55l-.4.85-1.2 1.2 1.5-1.25.5-.8v-.05q-.45-2-1.3-2.75l-1.45-.9-.85-.05-2.8.3-2.2 1.15-.95.75.05.05q-.45.25-.65.8l-.3 1-.05-.35q.05-.7.55-1.3l.15-.2 2-1.35q1.65-.9 4.55-2.15 1.05-.45 1.75-.25.75.2 1.15.55l-.1.05m17.1 2.3l1.1 1.65-1.9-1.3q-1.05-.55-2-.75l-1.3-.25-.05-.1-.6.05-1.25.15-1.1.2-1.2.7q-.7.65-.8 2.4-.1-1 .05-1.95.2-1.1.7-1.3l1.15-.45.3-.25q.55-.6.35-.95l-.25-.25.05-.05q2.7.15 4.3.85 1.65.65 2.45 1.6"/>
    <path fill="#4D4D4D" d="M82.4 97.35l-.05 1.55-1.35.2-1.6.1-1.1.05q-.9-1.85-2.1-2.7l2.85-.15 3.2-.75.15 1.7m-5.6 2.55q-.4-1.25-1.15-2.35L74.4 95.9l1.75 1.1q1.05.9 1.85 2.55-.55-.1-1.1.25l-.1.1m-3.2-3.3l-.45.75-.45-.05-.2-.15-.6-.4-.1.2-.15.25h-.3l-.2-.3-.1-.2-.15.1q-.15.05-.35.45l-.75-.1-.3-.55 2.55.05 1.55-.05m-29.25-28l-.5.25-1.35-1.45 1.85 1.2m23.3 29.45l-.05 1.8q-.15-.25-.4-.35l-1.2-.1q0-.5.5-1.45.5-1 1.9-1.85-.6.9-.75 1.95m2.05 2.05l-.3-1.4-.15-1.65.3.4.65.2-.2.9.15 1.2-.25.05-.2.3"/>
    <path fill="#4D4D4D" d="M68.9 98.3l.4 1.9-.65-.15q-.35.05-.6.4-.15-.75-.05-2 .1-1.3.95-2.4-.2 1.1-.05 2.25m3.15-1l.2.15.4.25.3.65q.25.6-.05 1.5h.1l-.2.3-.45.35-.85.25-.7-.5.05-.05-.15-.2-.05-.05-.05-.05q-.3-.75-.2-1.4l.25-.9h.05l.1-.05v-.05l.15-.2.15.3h.8l.15-.3m1.35 1.25l-.3-.8.15-.05q.5-.2.7-1l.3 2.1.15 1.6-.5-.5q-.3-.2-.55-.25l.05-1.1m1.2-.05l-.35-2.15 1.15 1.6 1 2.1-1.3-.15-.35.3-.15-1.7"/>
    <path fill="#DCBC9C" d="M37.6 73.45l.1.3-1.55-1.4q-.3-.35-.3-.65l.05-.15.25.1.9 1.05.5.75h.05m13.85 1.65l.45 1.35.15.45.05.6-.1 1.15v.05q.6 2.4 1.65 4.35 1 2 1.95 3.3l1.35 1.8h-.05l.75 1.65q.7 1.55 1.25 4.1.5 2.55.15 5.6l-.8.3-.75-.05-1.3-1-1.6-1.5-1.05-1.05V96l-.05-.15-1.05-3.45-1.25-4.25-1.1-4-.65-2.7-.4-1.7-.35-.9.75-.5.45-.45-.65.35-.8.3-.05-.05-.05-.05h-.1l-1.45.25-1.5.1-.7.05h-.1l-1 .5-1.65.45-1.4-.4-1.25-.55-.5-.4h.05l.4.05.55.15 1.1.2 1.1-.15.7-.15v-.05l.4-.2.6-.2 1.05-.45.95-.55.5-.35-1.6.55-1 .4-1.1.45-1.2-.5-1.6-.85-.65-1.3-.6-.9.05-.05-.2-.45q-.15-.75 0-1.35l.8.95.75 1.3.6 1.1.65.45h.05l1.75.15 1.05.05-.8-.2-1.15-.2-.75-.15-.25-.15-.25-.2-.4-.75-.6-1 1 .65.6.4 1.4.15h.85l.2.35.5.65.3.4-.1-.7-.45-.6-.2-.5-.1-.55-.15.2q-.15.15-.15.35h-.7l-.7.05-.45-.05-.75-.55-1-.65 2 .1 1.1.1.7.05.35-.15q1.3-.45 2.2-.45l-.3.55.15.55.75.5 1 .45.8.2.5.1-1.15-.65-.95-.4-.65-.45-.05-.25.45-.6.75.05.35.5.25.35-.15-.7h.05l-.15-.2-.25-.35q-1-1.4-1.55-1.45l-.45-.15-.4-.4-.6-.85-.45-.95.4-.2.75.2q.55.3.65.5l.95.95 1.6 1.3 1.35.6.95.95.75 1.6"/>
    <path fill="#333" d="M60.3 83.9l1.8 1.65.35 2.15q.3 1.8 1.3 4.45-1.15 2.05-2 4.5-.85 2.45-1.4 4.65l-.8 3.7-.25 1.5v.3l-.25 3.4-.45 4.2-.5 3.55-.25 1.55-.2 1.15q.1-2.8.35-5.1l.45-3.65.25-1.45-.35-.05-.3.65-.45.7.35-2.25.55-2.5.4-1.35.2-1.45.15-2.4.05-1.75.25-2.8q-.1-3.25-.9-5.65l-1.3-3.3.05-.1 1.25-4.05.55-2.1 1.1 1.85"/>
    <path fill="#1A1A1A" d="M57.4 100.1l.55.05 1-.15-.15 3.55-.25 1.9-.5 1.75-.6 2.9-.25 2.2.05.5.3-.4.6-.75-.6 4.4q-.3 2.8-.3 6.25l.05 2.55h.05l-.05.95.15 4.45q-.5-3.35-.55-11.35l.05-.5v-.4q0-.65-.4-.95l-.55-.1q-.35-.75-.4-2.4l-.1-3.3v-2.3l-.25-1.35-.4-.85.2-.65-.1-.25-.15-.1-.6.05q-.3.2-.45.75l-.25 1.2-.25 1.15-.15.85-.1 1.45v-2.65l.05-3.05v-1.65l-.05-.4.1-1.75.2-2 .25-2.95 1.9 1.85 1.85 1.5h.1"/>
    <path fill="#333" d="M85.6 108.55l.2-.5.4-1.05.4 1.9.45 2.25.35 1.7.35 1.75-.1.05q.5 1.9.4 4.2l-.4 4.55-.7 3.75-.45 1.75v.05l-.7 1.8-1.5 3.45-1.55 3.45-.9 1.95-.7 1.85-1.1 3.3-1.05 3.4-.5 2-.15 1.3-.2 2q0 .45.15.5l.4.1v.15l-.1.75-.05.3.25.7.25.35.05.05q.6.2.8.45l.2.55-.1.6-.05.35-.05.2.2.7.25.3q2.7 4.95 3.9 9.8 1.25 4.8 1.2 8.65 0 2.3-.4 4.05-.25 1.3-.25 3.35 0 3.1.55 6.85.5 3.8 1.35 7.1.8 3.3 1.7 5.05.85 1.5 2.5 2.15 1.65.65 3.5.8h3.3l-.25.1q-1.25.5-2.65.6l-2.4.05-1.05-.05-.6-.1.45.4.5.4.6.25.9.3 1.4.6 2.05.45 2.3-.1 1.8-.65q.9-.5 1.3-.45l.4.05q.95.9 2.45 1.55l3 .95-.55-.05-.9-.3-1.75-.35-.75-.15-1.9-.25q-1.1 0-2.8.85-1.8.85-3.85.5l-3.6-.9-.9-.25-2.9-.1-1.5.4-.15.05.05.15.75 1.1 1.45 1.3.7.65q.65.75 3.3.35.95-.1 1.55.5l1.25 1.55.85 1.1q.9.95 1.85 1.25-1.35-.15-2.55-.85l-1.95-1.3-.45-.35q-.75-.55-1.7-.7-.9-.15-1.6.55l-.9.95-.6.5-1.75-.85-2.85-1.85-.45-.3.15.5.1.65-.4 1.15-.45.35-.1.1q-.4.7-.4 1.45l.1.65q.35 1.05 1.1 1.6l.95.7q.9 1.4.85 2.45l-.1.8q.05-.8-.55-1.6-.6-.8-2.35-1.4-1.4-.45-2.05-1.2-.65-.75-.85-1.45l-.15-.95v-.1l.1-1.15-.15-1.3q-.15-.65-.65-1.15-.7-.5-2.25-.55l-3 .2-2 .45-1.85.5-2.1-.05-2-.1-2.55.25-1.35.15q-1.05.1-1.5.6l-.45.55q-.3.7-1 .95l-2.15-.1-1.15-.5h-.05l-1.25-.05-1.5.05-.75.1-.05.05-1 .25-.9.05-1.4.4q1.35-.9 2.6-1.1l2.5-.15h1.15q1.1-.05 1.85-.65l1.2-1.15.45-.65q.2-.4.75-.85l1-.75.3-.2.15-.1q.65-.4 1.4-.55l1.35-.15 1.2-.15q.7-.25.95-.65l.25-.7-.3.4q-.35.35-1 .55l-1.1.15q-1.3.05-2.65.6-.55-.35-1.65-.8l-2.05-.8-1.1-.35-1.25.3-1.35.8-.8.5v.05H52l-1.4 1.05-1.15.1-.55-.15-1.1-.3h-1.25l.6-.1h.15v-.2l-.35-.5-.8-.4-1.35-.05.95-.5.65-.25.15.25.65.85q.55.5 1.7.7l2.25-.25 1.5-.9.55-.4 1.45-1.25 1.05-1.2 1.9 1 3.6.55 2.55-.65 1.55-1.35 1.35-1.3 1.6-1.9 1.55-2.6 1.2-2.35.45-1 .3-.65.95-2 1.05-2.9.15-1.55-.25-2.95-.6-3.15-.6-2.6-.3-1.35-1.3-3.1-1.4-3.15q-.7-1.65-1.05-3l-.55-3.2-.45-4.15-.35-3.7-.15-1.8-.1-1.4v-.05q-.15-.3-.15-.75l.05-.4.05-.3-.3-1.35-.4-1-.2-.45-.2-1.15v-.35l-.5-2.4-1.15-3.9-1.15-3.75-.6-1.85q-.65-2.35-1.15-4.9l-.85-5.1-.6-4.6q-.25-2.45-.25-5.1 0-2.9.3-5.6.3-2.7.9-4.75.65-2.15 1.65-4.6l1.8-4.3.85-1.9v-.2l.7.1-.05.3v.3l.3-.1 1.1-.05.6.8.1.6.4.05q.25-.8.65-.85l.5.2.35.4.35.55v-.65q0-.8.15-.75h.25v.05q.45.8 1.1.9l1.15-.3.55-.45.05-.05q0-.2.15-.25l.5.3.65.75.25.4.1-.5q.1-.6.45-.75l.75.05.65.3.3.25v-.4q0-.25.15-.35l.6-.15.55.05.35.05-.1-.3-.05-.15 1.75-.1 2-.2.75 1.3 1.15 2.3.95 2.3q.05 1.9.4 2.85l.15.5"/>
    <path fill="#333" d="M92.35 65.9q.9.65 1.2 2l.25 2.75-.1 1.8-.05.85-.05.35q-1 6.5-1.5 11.45l-.35 4.55-.05 3.45v1.85h.05V95q.8 1.9 1.15 4.55l.3 5.65-.05 2.8q-.35-2.65-1.05-4.8l-1.25-3.35-.65-1.3-.1-.15-.15.05q-.4.25-1.1 1.6l-1.45 3.1-1.3 3.1h-.05v.1l-.4 1.05-.2-1.7h.1l-.1-.5-.05-1.35.1-3.75.25-3.7.2-2.7.1-1.05.05-1.85.2-3.35.15-.45-.15-.05.25-2.9.05-1.1-.15-3.25-.25-3.2-.15-1.55v3.35l.1 2.8-1.5 1.75-1.35 1-.65.35.6-.2 1.45-.75 1.5-1.5V84l-.15 1.45-.15 1.9-.65 1.05-.95 1.15-1 1.35-.75 1.55-.8 1.9-.5 1.25-2.3.4-2.1.15h-1.2l-1.2-.6-.5-.2-.25-.05v.25l-.05.65-1.55.05-2.7-.05.05-.7.05-.35-.3.15-1.35.65-1-.1q-.75-.1-1.4-.55l.1-.2-.2-.05-.6-1.15-.6-1.8-.15-.45v.05q-.95-2.7-1.25-4.45l-.3-1.8v-.15l-.1-.05q-.95-.55-1.6-1.4L59.7 82.2l-.45-1.15-.15-.55.15-.55.4-.9.8-1.7q.75-1.65 2.5-4.1.5.2 2.45 1.6 1.9 1.4 5 4.65l.4.3q.45.25 1.3 0l2.25-1.2 3.55-2.05 3.25-1.85 1.8-1.35 1.65-1.55.75-.8.05-.05v-.05q.05-.75-.7-1.8L82.9 67l-2-1.9-1.15-1-.9-1.1q-.4-2-.2-3.05.25-1 .8-1.4l.9-.45.9-.2 1.1-.1-.9.65-.1.05.5 2.4 1.55.65 3.15 1.35 3.35 1.55 2.45 1.45"/>
    <path fill="#4D4D4D" d="M66.15 97.75l-.5 1.25-.8-.15q.35-.9.3-1.85l-.05-1.1.15-.3 1.1.5 1 .2q-.8.7-1.2 1.45"/>
    <path fill="#666" d="M65.25 95.95l.75.2.95.25-.5.35-.65-.25q-.55-.2-.55-.55m3.2 1.55l-.2 1.75-.1.95q-.2-1.8.15-2.8l.4-1q-.15.2-.25 1.1m2.35 1.6l.15 1q-.5-.65-.55-1.25l.2-.95.2-.4q-.15.7 0 1.6m6.4-.8l.3.55-.55-.65-1.5-1.5-.85-.7q2.05 1.25 2.6 2.3m-3.05 1.15l-.25-1.4q-.1-.75.05-1.15l.15.75.2 1.5.05 1-.2-.7"/>
    <path fill="#CDA276" d="M98.6 130.1l.55 1.2.75 1.95-.1.2-.05.1-1.05-1.85-.8-1.1-.85-.75-1.1-1.05-.7-.9q-.15-.55.05-.8.35.75 1.2 1.45l1.5 1.15.6.4m-9.55-29.6l.95-1.6 1.3 2.95v.85l-.95-1.35-.5-.55-.75 1.85-1.2 2.55-1.15 2.45-.25-1.3 1.3-3.1 1.25-2.75"/>
    <path fill="#CDA276" d="M91.25 101.85l1.15 3.85q.5 2.2.5 4.7v.75h.1l-.4 4.5-.1 1.3-.05 1.05.2 2.15.25.8v.05q.55.6 2 1.45l2.7 1.45 1.7.75.75.35.65.45.15.45-1-.4-1.15-.45-1.3-.55-.6-.25.6.4 1.2.7 1.15.5q1.25.35 1.55 1.05l1.25 2.45.7 1.4.05.05q1.25 1.35 1.65 2.4l-.9-1.3-.75-.9-.75-1.05-1.05-1.65-.7-1.05v-.1l-.25-.3-1-.35-2.2-.9-1.1-.65 1.05.85q.95.7 2.15 1.05l.85.3v.05l.1.15.6.95 1.15 1.75.85 1.2.1.05-.05.05q-.15.1.1.95l-1.05-1-1.25-2.35-.85-1.35-1-.5-1.9-.9-1.75-.85-1.45-1.25-1.25-1.7-.95-1.35q-.3-.55-.4-1.7l-.15-2.25v-1.4l-.1-1.7-.15-3.6-.05-4 .3-3.15.1-.6v-.8m.2 26.05l-.2.15q-.35.35-.35 1.25l.15 1.75.1 1.05v.15l-.45 1.2-.65 1.1-.1-.55.45-1.05.2-.75-.05-1.2-.05-1.75v-1.45q.05-.4.5-.35l1 .25q-.35.05-.55.2"/>
    <path fill="#1A1A1A" d="M88.45 117.5l.1.4.25 1.25.2 1.8.05 1.25-.05.65-.2 1.75-.05 1.35q-.1.95.2 1.45l.25 1.05.35 1.8.05 1.35-.25 1.05q-.3.8-.3 1.3v4.15l.2 1.55.35-.05.1-1.7.15-1.5.2-1.35.6-.75.55-1.1.3-.9-.05-1.3-.15-1.6q-.05-.8.2-1.1l.4-.2 1.05.15q-.5.5-.8 1.75-.3 1.25-.3 2.7l.05.95v.5l-.2 3.4-.5 4.5-.45 3.9-.25 1.7q-.5 1.65-.5 3.1v.55l-.1-3.2.15-3 .15-1.9q.05-1.1-.5-2.05l-.8-1.45-.25-1.25-.15-1.8-.1-.9q-.15-.25-.55.3l-.75 1.2-.4.75.6-2.05.95-3.5q.25-1.35-.2-2.65l-.8-2.3.85-4.45q.4-2.75.35-5.55"/>
    <path fill="#CDA276" d="M79.7 53.25v.85l.05 1.35h-.1v1.5l-.8.3q-.65.25-.95 1.6l-.1 1.2q0 1.6.75 3.05l.05.35.1-.05.4.6.45.45 2.35 2.1 2 2.1-2.35-1.6-2-1.15-1.95.1-1.8.3-.8.2q-.7.5-1.45.4l-1.25-.4-.5-.3-1.75-.25-.85.1q-1.4.6-2.55 2.1T64.8 71l-.7 1.4.45.7.5 1-2-1.25q.5-2.2 2.1-4.15 1.6-1.95 3.45-3.65l2.45-2.55q1.5-1.8 1.25-3l-.35-.75-.3-.2v-.05h-.05l-.2-.05-.3-.3q-.15-.25 0-.65.2-.65 0-1.15v-2.9q2.1-2.3 4.35-2.3 1.15.05 2.1.5.9.45 1.45.95l.7.65m-6.05 7.25l-.55-.25q-.3 1.05-1 2.05L70.85 64l-.6.7.85.05q.75.05 1.35.4l1.15.65 1.15-.05 1.45-.4 2.15-.25q-.7-.75-1-1.85l-.35-2-.1-.95-1.85.45-1.4-.25m-2.5 4.85h-.65l.6.2.75.3.1.1 1.05.55 1.45-.15.65-.2 1.25-.45.7-.2-1.7.2-1.05.3-1.2.1-.9-.5-.15-.1-.9-.15M70.7 79.2l-.75-.75.8-1.6q.45-.85 1-1.2l-.5 1.95q-.25 1.05-.05 1.9l-.5-.3"/>
    <path fill="#1A1A1A" d="M69.5 60.9l.05-.05q.35-.9-.05-1.6l-.9-1.1q-1.7-.75-3.15-.6-1.45.1-2.5.55l1.9-.85 2.2-.15h.1l.65.05 1.35.75q.7.7 1.15 2.55l-.25.6-.65.9-3 1.9-2.15 1.4.7-1.4 1.4-.65.5-.3L68 62l1.5-1.05v-.05"/>
    <path fill="#1A1A1A" d="M69.35 56.35l-.4-1.2q.9.15 1.4.55l-.1.1.3.3.25.8-.1.45-.1.5.15.45.4.4.3.15.2.2.25.5v.25l-.15.75-1.95 1.15.7-.8.2-.4v-.1q-.5-2.1-1.4-2.85l.05-1.2m17.2 2.1q-1.1-.55-2.05-.75l-1.3-.25v-.1l-.6.05-1.25.15q-.35-.4-1.05-.55l.15-.1q.5-.6.35-.95l-.3-.25.05-.05q2.7.15 4.35.85 1.6.65 2.4 1.6.85.9 1.1 1.65-.75-.8-1.85-1.3"/>
    <path fill="#303030" d="M78.35 97.7q.5.7.65 1.5l-.7.05q-.9-1.85-2.1-2.7l1.15-.05 1 1.2m.75-1.3l3.15-.75.15 1.7-.05 1.55-1 .15-1.25.1-.5-1.05-.5-1.25v-.45m-6.15 1.9q.25.6-.05 1.5l.1.05-.15.25-.5.4-.85.25-.25-.1.95-.95q.45-.65.15-1.6l-.1-.25-.15-.55.15.15.4.2.3.65"/>
    <path fill="#CDA276" d="M43.1 76.6l-1.2-.25-.8-.15-.2-.15-.25-.2-.45-.75 1.15.45q1.25.35 1.75 1.05"/>
    <path fill="#CDA276" d="M38.7 74.35l.7 1.4.5.7 1.35.55 2.15.7-1 .4-1.25-.45-1.6-.85-.65-1.3-.6-.95h.05l-.2-.45-.05-.95.6 1.2M48.65 78l.7.2-.9.35-.05-.05-.1-.05-.05.05-1.5.2-1.5.1-.7.05h-.05v.05l-1 .5-1.65.4-1.1-.3-1.15-.45 2.2.2.9-.2 1.2-.4 1.15-.35 1.75-.35 1.2-.05.65.1"/>
    <path fill="#CDA276" d="M51.4 75.1l.45 1.35.15.45.05.6-.05 1.15v.05q.6 2.4 1.6 4.35 1 2 2 3.3l1.35 1.8h-.1l.65 1.4L58.65 93l.45 3.05q.15 1.65-.1 3.45-.3.25-.75.3l-.8-.05h-.05q.25-.95.1-2.25l-.4-2.45-.25-1.85-.8-2.35-1.75-3.8-1.8-3.65-.9-1.8-.25-1.05-.2-1.7v-1.7q0-.75-.7-1.85l-1.5-1.95-1.05-.95-.65-.55-1-.95-.85-.7-.95-1.2.75.2.6.5 1 .95 1.55 1.3 1.35.6.95.95.75 1.6"/>
    <path fill="#1A1A1A" d="M62.45 87.7l1.3 4.45q-1.15 2.1-2 4.5-.85 2.45-1.4 4.65l-.8 3.7-.25 1.5v.3l-.2 3.4-.5 4.2-.5 3.6-.25 1.55-.2 1.1q.1-2.8.35-5.1l.45-3.65.25-1.45h.05l-.4-.05-.25.65-.5.7.35-2.25.55-2.45.4-1.35.2-1.5.15-2.4.05-1.75.25-2.75q-.05-2.3-.5-4.2l.95-.35.45-.3q.1-.6-.35-1.55l-.85-1.75-.5-.8q.35 0 1 .6l1.15 1.35.6.75.45-1.5.05-2.1-.15-2.05.25.15.35 2.15M87 110.85l.4 2 .35 1.8h-.1q.45 1.8.4 4.05l-.35 4.35-.7 3.7-.5 2.15v.05l-.7 1.85-1.5 3.4-1.55 3.5-.9 1.9-.7 1.9-1.1 3.3-1.05 3.35-.5 2-.15 1.35-.2 2q0 .45.15.45l.4.1v.2l-.1.7-.05.3q.05.45.25.75l.25.3v.05h.05q.6.2.8.45l.2.55-.1.6-.05.4-.05.2.2.65.25.3q2.7 5 3.9 9.8 1.25 4.8 1.2 8.65 0 2.35-.4 4.05-.25 1.35-.25 3.35 0 3.1.55 6.9.5 3.75 1.35 7.05.8 3.35 1.7 5.1.85 1.45 2.5 2.1 1.65.7 3.5.8l3.3.05-.25.1q-1.25.5-2.65.6l-2.4.05-1.05-.1-.6-.1.45.45.5.35.6.25q.2 0 .9.35l1.4.6 2.05.4 2.3-.1 1.8-.6q.9-.55 1.3-.5l.4.1q.95.9 2.45 1.5l3 1-.55-.1-.9-.25-1.75-.4-.55-.1-1-.9-2.3.15-3.8.75h-2.2l-1.15-.2-1.6-.55-1.25-.6-1.15-.25-1.5-.2q-.6-.3-1.15-1.3l-1-1.9-.4-1-.9-2.95q-.85-2.85-1.45-7.45-.65-4.65-.15-9.95.4-4-.05-8.15-.5-4.2-1.3-7.85l-1.55-5.95-.7-2.6q-.05-.3-.55-.1l-.6.2q.7-1.4.6-1.95-.05-.55-.35-.65l-.35-.05q-.2-.1-.7.45l-1 1.1-.45.65q-.3-.5.1-1.3.4-.85.95-1.55l.55-.75q.15-.3-.1-.15l-.6.35-.35.25q-.4-.2-.6-1.85-.25-1.6-.25-3.7-.05-2.1.2-3.75l1.05-4.3 2.05-6.75 2.3-6.95 1.9-5.05q.95-2.25 1.3-4.45l.4-3.55.05-1.5q-.55.05-1.1.65l-.9 1.2-.4.65q-.5-1.3-.65-3.7-.1-2.4-.05-4.8.05-1.3-.3-2.9l-.8-3.15-.65-2.35-.15-.6v-.05l2.1-.25.75 1.3 1.15 2.35.95 2.3q.05 1.9.4 2.85l.15.45.2-.45.4-1.1.25 1.25.55 2.6"/>
    <path fill="#1A1A1A" d="M80.3 100.2q-.8.35-1.15.7l-.3.4-1.1-.1-.75.45q-.25-.45-.7-.2l-.8.55-.4.4q-.15-.5-.75-.7l-.65-.25q-.45.65-1.15.7l-1.15-.1-.55-.2-.8-.05q-.5.25-.55.35-.1-.85-.6-.85-.55 0-1.05.3l-.55.35q.1-.8-.35-1.05l-.95-.3-.6-.2q-.05-.15-.25-.2l-.5-.15.3-.6v-.05l-.05-.15.75.1-.05.3v.3l.3-.1 1.1-.05.6.8.1.6.35.05q.3-.8.7-.85l.5.2.3.4.4.55-.05-.65q.05-.8.2-.75h.2l.05.05.55.7.5.2q.7.05 1.2-.3l.5-.45h.05v-.05l.2-.25q.15 0 .5.3l.65.75.25.4.1-.5q.1-.6.45-.75l.75.05.6.3.35.25v-.4q-.05-.25.15-.35l.6-.15.55.05.35.05-.1-.3-.05-.15h.55l1.1-.1v.05l.15.65M64 211.3l-1.1.15q-1.3.05-2.6.6l-1.7-.8-2-.8-1.1-.35q-.7-.05-1.7.55l-1.35.85 1.75-1.35q1.05-.7 1.4-.65l1.65.65 3.2.9 3.75.2-.2.05m-12.75 1.1l.8-.6q-.75.85-1.45 1.05l-1.15.1-.5-.15-1.1-.3-1.25-.05.55-.05.2-.05v-.2l1.7.5q.7.4 1.25.2l.95-.45m32.25 2.95l.1.65-.4 1.15-.45.35-.1.1q-.45.7-.4 1.45l.1.7q.35 1 1.05 1.6l1 .65q.9 1.4.85 2.45l-.1.8-.1-.6q-.2-1.35-.95-2.2l-1.55-1.3-.85-.5-.55-.4q-.35-.25-.45-1.05-.1-.85.6-2.55.6-1.35 1.15-1.6l1 .1.05.2m12.75 2.45q.95.95 1.85 1.25l-1.5-.35-1.95-1.7-1.2-1.3q-.45-.5-1.35-.55l-1.75.05-1 .2q-.25 0-1.1-.55l-1.25-.8-1.15-.7q-.75-.5-.95-1.4-.05-.5.45-.65l1.05-.15.05.1q.1.45.7 1.1l1.45 1.3.7.6q.65.8 3.35.4.9-.15 1.55.5l1.25 1.55.8 1.1m-19.15-3.3l-2.25-.05-2.25.25-1.4.35-1.85.5-2.1-.05-2-.1-2.55.25-1.3.15q-1.1.15-1.55.6l-.45.55q-.3.75-1 .95l-2.15-.1-1.15-.45-.05-.05-1.25-.05-1.5.1-.75.05-.05.05 1.75-.35q1.85-.2 3.85.05l.7-.05 1.5-1q.95-1 2.5-1.3l2.55-.15 1.85.1 2.35-.15q1.15-.2 1.7-.6l1.6-1 2.3-1.15 1.55-1-1.15 1.45-1.45 1.3h.9l1.8.2q.95.2 1.3.7m-25.6 2.95l-.7.25-.85.1 1.6-.4M86.1 79.1l.1 2.05h-.05l-1.45 1.7-1.4 1-.65.35.6-.2 1.45-.75 1.5-1.5V84l-.15 1.45-.15 1.9-.65 1.05-.9 1.15-1.05 1.35-.75 1.55-.8 1.9-.5 1.25-2.15.4.6-2 1-2.35q.5-1.15.95-1.95.5-1 .2-1.8l-.75-1.4-.5-.5-2.7.15-2.65-.4-1.2-.25-2.4-.3-3.6-.15-3.3-.1H63.3l1.75-.45 4.1-.85 4.75-.4q2.3 0 3.65.85l.35.2 1.1.15q.75-.05 2-.75l2.8-1.95q1.45-1.15 2.3-2.65"/>
    <path fill="#1A1A1A" d="M92.35 65.9q.9.65 1.15 2l.3 2.75-.1 1.8-.05.85-.05.35q-1 6.5-1.5 11.45l-.35 4.55-.05 3.45v1.85l.05.05q.8 1.9 1.15 4.55l.3 5.65-.05 2.8-.85-4.25-1.15-3.25-.95-3.55-.65-2.4.1-1.9.35-3.05.5-3.25.65-2.45.6-3.05.2-3.25.05-1.5-.25 1.1-.35 1.65-.15.85-.65.95-.4.55.35-2.75.5-3.9.4-3.85v-2.5q-.25-.95-1.25-1.8-.95-.8-2.1-1.2l-1.8-.35h-1.65l-2.5-.35-2.4-.4-.9-1.1q-.4-2-.2-3.05.25-1 .8-1.4l.9-.45 1.15-.2.85-.1-.9.65-.1.05.5 2.4 1.55.65 3.15 1.35 3.35 1.55 2.45 1.45M76.85 204l.4-5.25.4-6.45.25-6.15-.15-4.1.75 1.8q.7 1.75 1.15 5.15.5 3.4-.05 8.25t-3 11.05l.05-.7.05-1.2.15-2.4m.5-116.65l-1.2.2-2.9.35-3.3-.15q-1.65-.2-2.6-1.05l.9-.1 1.85-.2 1.45.05 1.6.35 2.4.35 1.8.2M67.7 109.2l4.35.35 3.65.1h1.55l-6.95.4-4.6-.95-1.65-.7 3.65.8m-4.8 3.5l1.8.6 4.5.75 5.85-.6-1.3.45-3.2.7q-1.95.3-4-.05t-3.65-1.85"/>
    <path fill="#454545" d="M62.1 74.95l.9-1.45 1.05.5.65.55q-.45.05-1.35.9l-1.8 2.05-1.6 2-.65.95q.15-.9 1.05-2.55l1.75-2.95m13.65 3.15l.2-.1-1.9 1.45-.7.75q-.2.1-.05.65l.4 1.2.25.6q-1.2-.4-1.65-1.25l-.45-1.2q.05-.2.85-.65l1.7-.85 1.35-.6M88.4 67.65L87 69.1l-.65.75-.1-.25-.95-1.25-1.55-1.4-.8-.65 2.35.15 3 .2 1.5.15-1.4.85m-14.1 23.4l-3.7.4-2.75-.85-1.1-.6 5.8.2 4.05-1.25 1.55-.8q-1.85 2.25-3.85 2.9M60.45 87l.75 2.15.15.95q-.2-1-1-1.85l-1.5-1.35-.75-.55.5-1.5q1.3.95 1.85 2.15m-1 3.1l.4 1.6-.05.55q0-.7-.55-1.7l-1.05-1.7-.6-.8.3-.65q1.15 1.6 1.55 2.7m7.9-34.1l1.65.15-1.45.2-3.1.7q-1 .3-1.85.75l.25-.15q1.3-.75 2.95-1.55 1.7-.8 2.9-.9l-1.35.8m3.05 6.4l-.95 1.1-1.15.9-.55.4-1.85.75-2.65.9-2.35.8q-.6.9-.7 1.75l.6 1.85.8 1.6-.45-.5-.8-1.1-.45-.75-.1.85-.05 2.3q0 1.3.25 2.35l-.3-.7q-.3-.7-.4-2.4-.1-1.7.45-4.6l.05-.15v-.55q.1-.45 1.1-1.25 1-.85 3.8-1.95l-.5 1.25 2.45-1.35 1.15-.8-.6.9-.3.5 1.5-.75 1.4-.95.6-.4"/>
    <path fill="#404040" d="M70.4 62.4l-.95 1.1-1.15.9-.55.4-1.85.75-2.65.9-2.35.8q-.6.9-.7 1.75l.6 1.85.8 1.6-.45-.5-.8-1.1-.45-.75-.1.85-.05 2.3q0 1.3.25 2.35l-.3-.7q-.3-.7-.4-2.4-.1-1.7.45-4.6l.05-.15v-.55q.1-.45 1.1-1.25 1-.85 3.8-1.95l-.5 1.25 2.45-1.35 1.15-.8-.6.9-.3.5 1.5-.75 1.4-.95.6-.4"/>
    <path fill="#454545" d="M90.7 82.4l-1.8 4.05q-.8 1.75-.75 3.75.05 2 .4 3.5l.35 1.5q-.15 2.25-.95 4.7l-1.55 4.05-.85 1.75.1-2.15.3-4.3.4-5 .35-4.35q.25-2.45 1.35-4.45 1.1-2.05 2.1-3.3l1.1-1.3-.55 1.55m-2.8-8.85q-.15.75-.15 1.6-.05.85.2 1.5v1.9l-.4 3.05-.5 2.85-.15.8.1-1.95-.05-3.2-.15-2.9q0-1.15.35-2.2l.75-1.75.25-.4-.25.7M60.75 128.7l1.5 3.1.9 1.7.3 2.05.65 4.2.75 4.95.6 4.05.25 1.7q-1.75-4.8-2.85-9.3-1.15-4.5-1.8-8.1l-.9-5.75-.1-1.05q.2 1.2.7 2.45m10 24.85l.75 1.85.5 1.35.6 2.25.25 1.15-.65-1.25-1.1-1.6-.85-1.45-.25-1.8-.2-2.85-.1-2.65v-1.15q.35 4.3 1.05 6.15m6.55 5.6l-.85 1.75-.4.95q-.2-1.3.3-2.15l1.05-1.3.65-.45q-.3.25-.75 1.2m-1.55 9.9l1.1 3.6 1.25 3.5.8 2.05.45 2.45.45 4.15.3 3.9.1.95-.65-3.65-1.6-5.5-.9-3.7-.9-4.55-.6-3.9v-.25l.2.95m-6.9 2.1l1.55 2.65.85 1.3.8.75q.7.75 1.6 2.45.9 1.75 1.45 4.7.55 2.95.25 7.3-.4 4.4-1.85 7.65-1.4 3.25-2.95 5.3L68.1 206q-.9.75-.25.05l1.8-2.7 2.05-4.2 1.75-4.2.85-2.6q.1-.75-.2-2.55l-.65-3.95-.8-3.75-.5-2.05-.55-1.45-1.05-2.35-1.1-2.35-.7-1.35q-.25-.45-.4-1.3l-.2-1.7v-.5q.05.8.7 2.1m-1.5 38.6q-.35.95-1.75 2.1-1.4 1.15-4.45 1.9.05-.1-.85.3-.95.35-3.35 2.05l.7-.7 1.1-1.25q.35-.6 1.3-1.05.95-.45 1.85-.5l1.85-.45 2.3-1.3q1.15-.85 1.6-2.05l-.3.95m12.95-9.15l-1 5.2-1.15 4.2-.5 1.75.65.55 1.35 1.15.9 1.1q.2.5 0 1.65l-.45 2.2-.3 1.1-.15-1.5-.25-2.1-.25-1.5q-.15-.4-.85-.9t-1.35-.85l-.7-.4.25-.65.65-1.6.55-2 .85-3.55.95-3.95.75-3.25.3-1.35q.15 2.05-.25 4.7m2.55 10.15q.9 2 2.1 3.4L87 216.3l.95.75q-2.85-1.2-4.25-3-1.35-1.75-1.75-3.55-.4-1.8-.3-3.05l.15-1.25q.1 2.55 1.05 4.55m-12.1-101.7l-1.15-.1-2.25-.45-2.3-.55-1.4-.55 1.4.15 3.3.35 3.65.3 2.55.1-.9.15-1.75.35-1.15.25m-8.35 2.4l3.5.75 2.9.5 3.5.25-1.25.4-2.3.4-2.05-.35-2.6-.8q-1.25-.5-1.95-1l.25-.15m12.7 4.25l-5.65 18.15q3.35-16.55 5.65-18.15"/>
    <path fill="#9C6A4E" d="M90.268 42.31q.044.585-.017 1.197-.06.62-.2 1.172-.15.55-.35.97-.31.61-.62.99l-.56.64-.29.32-.23.32q-.1.24-.35.5-.24.26-.57.46-.33.2-.7.24h-.08l-.35-.06q-.19-.07-.38-.23l-.13.61-.3.9q-.16.43-.57 1.2-.41.77-1.01 1.7-.61.93-1.4 1.84t-1.76 1.66l-.66.47q-1.06.81-2.09 1.51-1.03.71-1.99 1.14-.96.44-1.86.45l-.37-.02q-.62-.09-1.47-.46-.84-.37-1.8-1t-1.93-1.48q-.96-.86-1.85-1.89-.88-1.05-1.58-2.25-1.29-2.29-1.9-3.89-.59-1.61-.48-2.56l-.4-.53q-.22-.39-.42-1.1-.19-.71-.24-1.84-.02-1.18.18-1.77.2-.59.47-.79.27-.2.47-.2l-.14-.57q-.11-.46-.12-1.235-.02-.775.09-1.73.1-.96.31-2 .22-1.03.55-2.018.62-1.76 2.067-3.4 1.44-1.63 3.6-2.97.64-.4 1.425-.65t1.62-.37l1.62-.185 1.43-.04 1.11.03.48.034.68.03 1.517.22q.93.18 2.01.574 1.1.4 2.18 1.1 1.09.7 2 1.794 1.18 1.47 1.81 3.1.64 1.624.87 3.32.25 1.694.23 3.363l-.035 1.58q.49-.3.97-.31.268 0 .5.1.56.197.84.907.186.47.238 1.06"/>
    <path fill="#DDB897" d="M86.08 32.103q.6 1.42.87 2.91.28 1.492.33 2.983.053 1.49-.025 2.893l-.165.24-.314.43-.165.26 1.01-.75q.54-.45 1.01-.45l.37.07q.37.12.58.65.16.4.2.93.04.53-.02 1.1-.05.57-.19 1.09-.13.51-.32.89-.29.57-.58.92l-.53.6-.33.35q-.15.19-.26.41l-.28.4-.45.36q-.25.15-.52.18h-.09q-.37-.01-.62-.39l-.21-.36-.28.51v.05l-.05.42q-.07.42-.38 1.26l-.55 1.17q-.39.74-.98 1.65-.59.89-1.36 1.78-.77.88-1.69 1.58l-.64.48-2.02 1.473q-.99.68-1.9 1.11-.92.42-1.75.43l-.35-.018q-.58-.08-1.38-.44-.81-.37-1.73-.98-.92-.62-1.86-1.45t-1.8-1.82q-.86-1.01-1.52-2.15-2.61-4.57-2.33-6.287l.05-.26.14-.595.21-.71q.16-.444.2-1.047.04-.61-.03-1.3-.08-.687-.27-1.388l-.4-1.54q-.11-.44-.11-1.2 0-.74.1-1.67.11-.925.31-1.92.21-.99.52-1.915.59-1.7 1.99-3.26 1.39-1.57 3.48-2.885.61-.372 1.38-.603.756-.23 1.575-.357l1.59-.17 1.41-.04 1.09.03.43.024h.018l.587.03 1.45.21q.9.18 1.96.56 1.07.38 2.13 1.05 1.05.677 1.92 1.715 1.02 1.26 1.61 2.68m1.82 10.28q.11-.15.24-.2l.04-.01q.13 0 .3.09.164.09.295.362.12.27.11.81 0 .55-.21 1.44l.15-.35q.13-.33.22-.82.103-.48.025-.95-.08-.47-.485-.757l.37-.04.25.03q.02-.137-.05-.208l-.08-.06-.175-.03q-.23.01-.43.08l-.212.08q-.63.36-1.056.87-.436.492-.706.98l-.386.81-.122.336q.23-.442.44-.762l.4-.57q.15.05.368.21.22.16.365.44.14.286.03.7l-.09.11-.25.196q-.164.1-.373.11-.165 0-.374.14-.21.126-.35.33-.14.206-.1.42.05.22.39.4l-.07-.125q-.06-.115-.08-.284-.03-.17.085-.33.106-.16.428-.26.653-.193.9-.47.234-.282.2-.63-.036-.344-.25-.664-.23-.32-.657-.49l.47-.52.43-.41"/>
    <path fill="#DEB998" d="M62.332 42.247q-.348-.195-.47.275.192-.142.348-.044l.087.062q-.313.31-.4.843-.122.87.427 1.083-.27-.32-.175-1.04.07-.442.31-.682.21.32.37.86.16.533.15.79-.06.764-.39 1.856l-.03.133q-.25-.24-.45-.64-.46-.984-.46-2.538-.01-1.41.28-1.88.2-.312.48-.365l.18-.01q.54 1.226.43 2.39-.32-.88-.72-1.093"/>
    <path fill="#D1A176" d="M80.707 26.777q1 .39 1.985 1.04.975.647 1.794 1.623 1.02 1.26 1.61 2.68.602 1.42.872 2.91.278 1.492.33 2.983.044 1.49-.025 2.894l-.166.248-.313.444-.166.24 1.01-.75q.53-.44 1.01-.45l.366.07q.366.13.575.66.15.41.19.94.04.53-.01 1.1-.06.57-.19 1.08t-.33.88l-.59.93-.53.59-.33.36q-.16.18-.26.4-.08.2-.28.4-.2.21-.46.36-.27.15-.53.18l-.09.01q-.38-.01-.63-.4l-.21-.36-.28.51v.05l-.05.44q-.07.43-.39 1.25l-.56 1.18q-.39.75-.98 1.65-.6.9-1.36 1.78-.77.89-1.69 1.59l-.65.48q.92-.73 1.62-1.73.7-.98 1.2-2.11.51-1.13.82-2.27.32-1.16.47-2.2.16-1.06.17-1.9.01-.84-.12-1.36-.19-.76-.55-1.23-.37-.47-.76-.73-.39-.25-.67-.34l-.29-.09.06-.658.09-1.75q.04-1.11-.02-2.55-.07-1.43-.29-3.036-.23-1.598-.7-3.2-.46-1.616-1.23-3.08-.768-1.46-1.917-2.636l1.49.26q.89.19 1.89.58m6.78 16.03l.42-.427.26-.19q.13-.01.31.08.17.08.31.36.13.26.13.81.01.55-.21 1.463l.14-.34.23-.814q.11-.49.03-.96t-.49-.754l.37-.03.26.02q.02-.13-.06-.195l-.1-.07-.19-.04-.41.08-.2.08q-.626.373-1.06.87-.435.5-.705.985-.27.48-.393.8l-.12.33.45-.743.41-.57.35.216q.213.16.353.437.14.273.037.68l-.088.108q-.09.11-.25.21l-.377.11q-.165.01-.374.14-.21.123-.344.33-.14.192-.1.405.043.215.383.39l-.07-.12q-.06-.117-.08-.277-.02-.17.082-.34.11-.16.44-.26.652-.183.9-.46.24-.273.183-.62-.03-.345-.25-.664-.21-.32-.63-.504l.455-.5"/>
    <path fill="#D2A176" d="M62.463 42.735q.07.027.287.568.244.612.244 1.003 0 .07-.104-.115-.166-.3-.366-.28-.166.02-.08.62l.123.61q-.618-1.13-.435-1.88.052-.24.192-.4.095-.12.14-.11"/>
    <path fill="#AD7D65" d="M72.373 47.44q-.174.913-.183 1.65-.017.745.244 1.154.174.24.348.328.174.098.348.098l.375-.09.296-.177.19-.142q.2-.15.29-.15.07.01.09.05l.03.04-.11.17-.39.46-.38.38q-.16.14-.3.14-.13 0-.29-.12l-.41-.35q-.13-.13-.32-.18-.18-.05-.35-.17-.16-.11-.25-.44-.03-.21.07-.72l.29-1.13.38-1.21.32-.97.14-.4-.37 1.83"/>
    <path d="M72.2 50.34l.06.214.017.107-.148-.01-.3-.08q-.16-.06-.22-.22l.12-.1q.11-.09.24-.1l.08.03.13.18m1.74.35l-.2.02.03-.1q.02-.11.1-.24.07-.13.19-.22l.16-.04q.15.01.28.09l.12.08q-.08.23-.3.32l-.39.11"/>
    <path fill="#FFF" d="M81.97 42.664q.417.47.618.94.2.47.26.79l.062.33q-1.34.328-2.552.31l-2.08-.187-1.438-.346-.53-.18q.34-.72.8-1.24.47-.52.923-.86.444-.34.75-.5l.313-.16h.026q1.053.01 1.74.33.698.32 1.107.79m-12.47-.33q.37.35.74.86.37.52.62 1.2l-.38.12-1.03.23-1.51.12-1.38-.1q-.72-.11-1.48-.36l.06-.28q.07-.26.25-.67.18-.4.54-.8.35-.4.91-.68t1.39-.28l.34.01.26.177.63.508"/>
    <path fill="#1A1A05" d="M81.656 42.495q.21.418.183.915-.04.48-.27.852-.25.372-.62.594-.39.222-.85.222h-.13q-.48-.044-.87-.31-.38-.267-.59-.684-.21-.417-.2-.905.03-.49.27-.87.23-.38.62-.6.38-.22.85-.22l.12.01q.49.02.86.29.38.26.59.69"/>
    <path fill="#424206" d="M81.08 42.114q.288.266.42.648.13.372.05.798-.112.542-.504.87-.4.33-.923.338l-.313-.036q-.4-.098-.688-.364-.296-.275-.427-.657-.122-.37-.052-.79.113-.55.505-.87.383-.32.914-.33l.322.04q.41.1.697.37"/>
    <path fill="#111103" d="M81.08 42.114q.288.266.42.648.13.372.05.798l-.155.426-.096.045-.28.05-.36-.07q-.2-.06-.44-.25-.18-.14-.36-.19l-.37-.05-.57.11-.25.11q-.13-.39-.06-.8.11-.55.5-.87.39-.32.91-.33l.32.04q.41.1.69.37"/>
    <path d="M80.968 43.49q-.06.328-.305.532-.244.195-.566.204l-.192-.027q-.374-.09-.574-.4-.2-.32-.14-.72.07-.33.32-.53t.57-.21l.19.02q.38.1.59.41.2.31.13.71"/>
    <path fill="#FFF" d="M79.94 43.418q-.035.178-.165.284-.13.116-.314.116l-.09-.01q-.2-.043-.3-.212-.11-.17-.08-.39.04-.178.17-.285.13-.1.3-.1l.12.02q.2.05.32.22.11.17.07.37"/>
    <path fill="#1A1A05" d="M69.673 43.117q.026.452-.165.834-.192.39-.53.63-.34.24-.785.29h-.096q-.636-.01-1.08-.43-.444-.42-.496-1.09-.01-.45.17-.83.19-.38.53-.62.35-.24.79-.27l.13-.01q.63.02 1.06.44.44.42.49 1.09"/>
    <path fill="#424206" d="M69.412 42.93q.06.39-.052.737-.122.346-.383.586-.262.248-.627.328l-.288.04q-.47-.01-.827-.3-.348-.29-.453-.8-.07-.37.052-.72.114-.34.375-.59.27-.25.63-.34l.28-.02q.48.01.83.3.35.31.45.79"/>
    <path fill="#111103" d="M69.412 42.93q.078.41-.052.728l-.218-.09q-.2-.08-.505-.096-.33-.01-.653.222l-.4.23-.332.062-.243-.035-.09-.04q-.1-.16-.14-.39-.07-.37.05-.72.11-.34.37-.59.27-.25.63-.34l.28-.02q.48.01.83.3.35.31.45.79"/>
    <path d="M68.907 43.046q.06.355-.122.648-.174.284-.522.363l-.183.018q-.296 0-.514-.186-.218-.19-.28-.49-.06-.36.132-.64.183-.29.53-.38l.158-.02q.287 0 .514.19.217.17.287.49"/>
    <path fill="#FFF" d="M67.244 43.614q-.122-.098-.148-.267-.035-.186.06-.337.105-.15.288-.195l.087-.01q.16 0 .28.1.13.096.16.247.03.195-.08.346-.1.16-.28.204l-.08.01q-.15 0-.27-.098"/>
    <g fill="#1A1A05">
      <path d="M80.567 45.158l-1.95-.177q-1.063-.17-2.265-.63l.6.19 1.517.33 2.03.18 1.24-.08q.62-.08 1.24-.26l.19.09-.32.1-.9.18-1.41.1"/>
      <path d="M82.718 43.09l.4.666q.157.275.253.3l.34.126.37.097.25-.07.25-.22-.12.17-.3.34-.42.36q-.23.15-.47.16-.18 0-.35-.14-.16-.14-.3-.46-.3-.76-.64-1.38-.33-.62-.82-1-.49-.37-1.24-.38h-.16q-.7.06-1.24.34-.53.28-.93.69-.39.41-.69.86l-.53.81-.14-.1.14-.29q.14-.29.43-.7.29-.43.73-.86.45-.42 1.05-.73.6-.3 1.37-.34h.14q.71.01 1.22.26.52.27.88.65.37.39.61.78"/>
      <path d="M83.667 43.223l-.052.08-.157.133q-.104.07-.278.08-.2.01-.488-.15l-.906-1.226.183.17.44.372.58.38q.3.16.57.17l.09-.01m-15.97 1.723l-1.55-.142q-.65-.124-1-.257l-.36-.134.17-.07q.69.275 1.41.39l1.4.107 1.54-.11 1.1-.21.37-.1q-.87.27-1.63.4l-1.47.11"/>
      <path d="M70.945 44.395l-.122.088-.418-.798q-.227-.435-.558-.843-.322-.41-.775-.702-.452-.3-1.07-.39l-.305-.027q-.6.01-1.02.338-.41.33-.722.87-.314.55-.6 1.2-.132.28-.28.39-.14.12-.296.12-.21-.01-.41-.16l-.37-.36-.26-.35-.1-.16.22.21.22.06.31-.07.28-.08.23-.25.36-.57.54-.67q.32-.32.75-.56.43-.22 1.01-.23l.28.02q.67.09 1.17.41.51.32.87.75.37.42.59.84l.34.68.1.28"/>
      <path d="M65.964 42.203l.182-.17-.905 1.226q-.29.16-.49.15l-.28-.08-.15-.14-.04-.08.11.01q.26-.01.57-.17l.59-.37.45-.38"/>
    </g>
    <path fill="#9B5F52" d="M76.692 52.87l.636-.14-.523.194q-.514.177-1.454.355l-2.22.19-1.74-.18q-.77-.17-1.32-.39-.55-.23-.85-.39l-.29-.18.16-.02.35-.03.31.02.47.1.73.13.82.06.64-.07.12.09q.13.09.29.17.16.09.31.09l.33-.06.32-.13.14-.06.32.06.78.11 1.02.06.71-.04"/>
    <path fill="#D3A694" d="M73.19 55.604l-.756-.186q-.34-.142-.662-.355l-.723-.524-.72-.57-.78-.65-.63-.53-.26-.22.29-.09.38.19.39.26q.38.25 1 .57.62.32 1.35.56.72.25 1.41.25l.39-.03q.7-.11 1.48-.38.77-.28 1.46-.58l1.12-.54.45-.23.16.32-.27.18-.68.45-.87.56-.86.55-.64.37q-.46.27-.85.44-.39.16-.86.17l-.37-.03"/>
    <path d="M78.617 52.427q.095.01.043.062l-.21.14q-.147.1-.32.24l-.376.27-.478.28-.453.22-.575.27q-.4.19-1 .36-.61.17-1.386.18l-.61-.04-1.062-.14-.68-.13-.443-.14-.392-.18q-.4-.21-.68-.44l-.54-.44-.496-.45q-.26-.22-.43-.3l.16.02.35.05.16.04.07.05.2.02.04-.01q.08 0 .28.1l.52.25q.27.113.78.202l1.1.15 1.11.09.53.02 1.07-.04 1.02-.11.72-.14.97-.32q.51-.17.95-.178"/>
    <path fill="#FFF" d="M69.734 52.835q-.157-.133-.157-.257l.018-.133.435.23.488.204.775.19 1.28.18 1.097.06 1.838-.15 1.367-.26.54-.15-.07.32-.27.18-.75.4q-.486.23-1.157.4-.68.17-1.506.18l-.444-.02q-.845-.07-1.463-.27-.62-.21-1.045-.45l-.662-.44-.314-.27"/>
    <path fill="#E6C0AE" d="M75.046 54.708q.166.035.183.097l-.16.098-.4.062-.41-.026q-.18-.04-.18-.1-.01-.06.14-.1l.39-.06.42.02"/>
    <path d="M68.994 51.823q.183.17.13.355-.043.196-.208.338-.157.133-.305.16h-.03q-.19-.01-.3-.098l-.11-.098.11-.186q.1-.17.25-.346.16-.17.33-.187.08 0 .16.07m9.93.41q.16.14.17.37.02.22-.09.4-.09.18-.3.19h-.03q-.16-.01-.28-.15l-.2-.31-.12-.32-.05-.14q0-.17.06-.25.07-.07.19-.07.16.01.34.1.19.1.32.21m-5.41.63l-.37.07-.38-.09-.39-.29.21.1.62.12.67-.1-.09.07-.25.13" fill="#74573A"/>
    <path fill="#250C00" d="M84.05 40.24l.48.427.19.187-.66-.31q-.436-.214-1.124-.392-.688-.186-1.69-.195l-.653.027q-.93.07-1.767.328-.836.258-1.48.56-.637.3-1.01.523l-.375.24q.68-.906 1.39-1.42.7-.515 1.34-.746.64-.24 1.13-.31l.75-.07.59-.03.95.07q.49.07.84.25l.54.35.59.48"/>
    <path fill="#33330F" d="M83.432 40.126l-.313-.213-.34-.23-.19-.116-.09-.08q-.04-.045.02-.045l.11.018q.12.053.34.23l.39.356.19.177-.15-.097M82.84 40l-.192-.096-.444-.222-.46-.213-.262-.11q-.122-.06.026-.06l.096.01q.087 0 .287.11l.41.23.38.24.17.1"/>
    <path fill="#250C00" d="M70.788 41.288q-.314-.204-.862-.488-.55-.293-1.263-.54-.714-.25-1.524-.356l-.84-.045-1.33.14q-.55.13-.91.29l-.54.23.29-.26.65-.52q.36-.29.65-.44.26-.13.61-.18l.69-.05.76.04.64.1q.42.07.97.3.55.22 1.14.69.59.46 1.15 1.27l-.32-.22"/>
    <path fill="#33330F" d="M65.485 39.416l-.08.062-.25.16-.41.257-.21.133.175-.15.348-.294q.2-.15.313-.195l.08-.01q.07 0 .04.03m.91-.07l-.22.08-.41.17-.39.18-.17.08.24-.15.49-.26q.26-.14.37-.14l.08-.01q.12.01.03.04"/>
    <path fill="#402300" d="M91.8 33.35l-.3-.6.4.85q.75 1.8 1.45 2.35 1 .75 2.15-.7-.25 1.9-1.85 2.5l-1.05.2h-.45q.45 4.55 1.25 6 .65 1.2 1.85.9L92.5 45l-.8-.6-.25-.3q-.85 6.55-2.5 9.4-.8 1.45-1.5 1.6 1.45-2.2 1.25-6.4-.2-3.95-1.6-6.4-.2-.8-.4-.85l-.35.35-.35.15-.25-1.25-.2-1.2q-.55-1.4-.95-3.25l-.25-1.55q-.2 3.15.35 4.85.2.75.75 1.75l1.1 2.1q-1.75-1.35-2.75-4.9l-.5-2.3-.15-.95L81 37.3l-2.15 1.8q2.9-3.4 3.7-5.25l.3-.95-.05-.25q-.3-.35-.45-1.55l-.1-1.1q-.3 3.75-3.2 8.15-1.4 2.2-2.8 3.6 2.9-3.25 4.2-8l.7-4.1q-2.5 6.2-9.2 9.9-3.4 1.85-6.25 2.45 4.35-1.8 7.7-5.85l2.45-3.7q-1.2 1.25-3.6 2.7-4.4 2.45-10.95 5.3-2.15 1.4-2.4 2.35-.05.3.05.5-.8-.95-.45-1.5l.45-.4.45-.35q.3-.3-.05-2.1-.15-1.15 0-2.8.2-3.4 1.55-6.25 1.8-3.95 5.55-6.25 4.65-2.9 12-2.95 7.55.7 11.2 6.75 1.15 1.9 1.75 4.05l.4 1.85"/>
    <path fill="#7B440F" d="M90.4 32.4q-2.1-4.05-7-5.65l-1.15-1.15-.8-.55 1.55.2q1.85.35 3.45 1.25 5 2.75 5.05 9.6-.05-1.7-1.1-3.7m-14.6-8.25l-5.65.8q-5.4.5-8.4 4.45-.95 1.25-1.45 2.45 2.2-5.55 8.65-7.2l4.75-.6 2.1.1M88.4 43.2q-.9-2.75-2.05-4.35-1.1-1.5-1.6-4.1l-.45-2.5.2-2.15.5.75 1.25 2.6q1.95 4.8 2.8 12.2l-.65-2.45M65.5 32.3l2.6-1.7-2.7 1.8q-3.1 2.3-5.75 5.55l5.85-5.65m-5.85 5.65q.05-.5.4-1.25.75-1.55 2.4-2.7l2.95-1.6m.35 5.3l-4.25 1.95 1.45-1.3 2.9-1.4q3.25-1.45 5.2-2.6-.9 1.15-5.3 3.35M79.3 22.85q.65 1 .65 2-1.95-3.2-5.55-3.55l-2.3.1-.95.2 3.35-.7q3.45 0 4.8 1.95m2.95-1.3l.55.2q.55.2.65.35l-.65.15q-1 .55-2.5 2.7l.15-1.1q.5-1.3 1.8-2.3"/>
    <path fill="#AD7127" d="M72 25.6q-6 1.85-9.6 5.7-1.8 1.95-2.4 3.5 1.8-5.25 7.05-7.75Q69.7 25.8 72 25.6m7.8 3l-2.4 4.2q-3.95 5.95-8.7 7.75l2.4-1.65q3.8-3.2 7.95-9.95l1.55-2.3-.8 1.95"/>
    <path fill="#DAA945" d="M73.7 31.25l-3.75 1.15-2.45.65q.65-.8-.15-1.2-.4-.25-1.45.3l-.6.25-.15-.15 1.95-1.75q1.6-1.35 1.2-1.5-.4-.2-2.2.65-.9.35-1.7.8.2-.75 2.35-2 1.9-1.1 3.7-1.7l-1.8 1.4q-.3.25-.1.2l.6-.25q1.1-.5.75.1-.6 1 2.2-.6L71 28.9q-.9 1.3-.25 1.55 2.05.8 5-.7l2.6-1.6q-.2.7-2.25 2.7-2.25 2.15-3.95 2.85-.5.2.75-1.2 1.2-1.4.8-1.25M80.8 29l-.8 1.85-1.5 1.8-1.55 1.1q1.4-1.75 2.25-3.6l1.1-2.2q.65.2.5 1.05"/>
    <path fill="#AD7127" d="M87.35 26.5q-3.05-1.8-5.75-1.25l.5.45.95 1.3q.25.35.75.35l.85.2q2.5 1.45 3.65 4.3 1.35 3.4 1.65 6.4.3 3.25-.35 8.65-.25-7.75-2.7-13.95l-1.85-3.75-1.1-1.65-.3-.05-.2.15.25.85.35 1.05q.1 2.65-2.95 6.9 1.8-2.7 2-5.1.25-3.05-2.25-5.25-.55 1.55-2.3 3.6-3.4 4.1-9.05 6.65l-2.5 1.1q-2.05.85-3.5 1.6-4.5 2.25-4.8 3.6-.25-.65.4-1.2 1.5-1.2 3.5-2.25l3.05-1.5 3.05-1.6q3.85-2.4 7.05-5.3 3.6-3.2 4.2-5.1l-1.15 1-3.5 3.15q-6.35 5.1-13.55 8.05-2 .8-2.5 1.85l.05-.75q.35-.9 1.85-1.65 5.3-2.5 10.45-5.65 6.6-4 7.95-6.2l-1.6.2q-2.45.8-7.15 3.75l-6.1 3.95 5.15-3.8q5.65-4 8.5-4.8l-1.65-.1q-2 0-3.7.8l1.45-.7q1.7-.7 3.2-.5l1.35.35-1.05-1.1q-1.4-1.15-2.95-1.6l-4.75.2q1.05-.7 4-.8 1.55-.05 3.25 1.1 1.05.7 2.25 2.45.15.5.15-.2-.6-2.5-2.55-3.35l-1.2-.3h-.55l.65-.15 1.25-.1q1.05.15 1.85.8 1.15 1.05.95 2.95-.35 2.95.05.25l1-1.45q1.25-1.4 2.15-1.2 1.45.3 1.4.75l-1.35-.05q-1.5.25-2.4 1.6l2.1-.3q2.4-.15 4 .55l-1.85-.35q-2.1-.2-3.2.35l1.15-.05 2.6.5q3.6 1.15 4.45 4.65l-.85-1.45q-.85-1-2.2-1.85"/>
  </g>
</svg>
